<svg width="142" height="50" viewBox="0 0 142 50" fill="none" xmlns="http://www.w3.org/2000/svg">
<path d="M109.863 49.2199C103.369 49.2199 98.2909 44.1418 98.2909 37.6476C98.2909 31.2023 103.369 26.173 109.863 26.173C116.357 26.173 121.387 31.2023 121.387 37.6476C121.387 44.1418 116.357 49.2199 109.863 49.2199ZM31.885 49.2199C25.439 49.2199 20.361 44.1418 20.361 37.6476C20.361 31.2023 25.439 26.173 31.885 26.173C38.379 26.173 43.457 31.2023 43.457 37.6476C43.457 44.1418 38.379 49.2199 31.885 49.2199ZM29.785 1.3195C35.205 0.294098 39.746 -0.2918 46.142 0.1476L84.7166 2.6867C84.7166 2.6867 92.2904 2.86912 97.119 3.3214C107.274 4.27256 122.803 8.0578 122.803 8.0578C135.498 10.4504 141.894 16.4074 141.894 26.5148V31.6418C141.894 37.8429 139.209 40.8214 133.008 41.5539L125.781 42.3839C126.025 41.2121 126.172 38.966 126.172 37.6476C126.172 28.6144 118.945 21.3878 109.863 21.3878C100.732 21.3878 93.5057 28.6144 93.5057 37.6476C93.5057 38.7707 93.6034 40.1378 93.7987 40.8703H47.851C48.096 40.0402 48.242 38.8195 48.242 37.6476C48.242 28.6144 41.015 21.3878 31.885 21.3878C22.803 21.3878 15.576 29.5421 15.576 38.5754C15.576 39.0636 15.576 39.2101 15.625 39.6496L11.23 39.2101C3.71104 38.4777 3.05176e-05 34.2296 3.05176e-05 26.3683V19.7277C3.05176e-05 10.255 3.32003 6.3488 12.06 4.6886L29.785 1.3195Z" fill="black"/>
</svg>
