<svg width="159" height="156" viewBox="0 0 159 156" fill="none" xmlns="http://www.w3.org/2000/svg">
<path d="M148.538 108.018C149.338 88.418 135.204 74.8513 128.038 70.5179C132.038 66.5188 145.538 66.5188 147.538 65.0188C148.338 64.4188 146.538 60.5188 149.038 58.5188C152.038 57.5188 153.871 55.5188 155.538 54.0188C161.038 47.5188 159.038 44.5188 155.538 42.5188C149.538 40.5188 135.538 48.0188 135.038 41.0179C135.038 10.0196 107.538 -0.497236 90.5377 0.0179239C57.5377 1.01792 51.0377 27.5179 51.0377 39.5179C51.0377 51.4511 54.8711 64.0179 58.5377 69.0179C52.7044 69.5179 39.8377 70.2179 35.0377 69.0179C30.2377 67.8179 25.0377 64.8513 23.0377 63.5179C16.0377 55.5178 9.45349 49.1155 1.45349 64.5C-0.357178 67.982 -0.96228 97.1846 2.53772 108.018C5.20439 114.851 12.4377 130.118 20.0377 136.518C29.5377 144.518 47.5377 154.518 80.0377 155.518C106.038 156.318 122.871 148.185 128.038 144.018C134.538 140.185 147.738 127.618 148.538 108.018Z" fill="black"/>
</svg>
